<svg xmlns="http://www.w3.org/2000/svg" width="390" height="83" viewBox="0 0 390 83">
    <defs>
        <style>
            .cls-1{fill:none}.cls-2{clip-path:url(#clip-path)}.cls-3{fill:#03a9f4}.cls-4{fill:#ff1200;font-family:MalgunGothicBold,Malgun Gothic}.cls-4,.cls-5{font-size:12px}.cls-5,.cls-7{fill:#fff}.cls-5{font-family:MalgunGothic,Malgun Gothic}.cls-6{fill:#f80606}.cls-8{filter:url(#사각형_1483)}
        </style>
        <clipPath id="clip-path">
            <path d="M0 0h390v83H0z" class="cls-1"/>
        </clipPath>
        <filter id="사각형_1483" width="390" height="83" x="0" y="0" filterUnits="userSpaceOnUse">
            <feOffset/>
            <feGaussianBlur result="blur" stdDeviation="5"/>
            <feFlood flood-opacity=".102"/>
            <feComposite in2="blur" operator="in"/>
            <feComposite in="SourceGraphic"/>
        </filter>
    </defs>
    <g id="하단_네비게이션" class="cls-2">
        <g id="그룹_361" class="cls-8" data-name="그룹 361">
            <path id="사각형_1483-2" d="M0 0h360v53H0z" class="cls-3" data-name="사각형 1483" transform="translate(15 15)"/>
        </g>
        <text id="Favorites" class="cls-4" transform="translate(139 59)">
            <tspan x="0" y="0">관리</tspan>
        </text>
        <g id="그룹_360" data-name="그룹 360" transform="translate(15 -530)">
            <text id="Recents" class="cls-5" transform="translate(34 589)">
                <tspan x="0" y="0">처음</tspan>
            </text>
            <text id="Nearby" class="cls-5" transform="translate(215 589)">
                <tspan x="0" y="0">채용</tspan>
            </text>
            <text id="Nearby-2" class="cls-5" data-name="Nearby" transform="translate(303 589)">
                <tspan x="0" y="0">설정</tspan>
            </text>
            <path id="XMLID_2_" d="M0 0h72v20H0z" class="cls-1" transform="translate(143.4 571)"/>
        </g>
        <g id="baseline-alarm-24px" transform="translate(139 23)">
            <path id="패스_963" d="M0 0h24v24H0z" class="cls-1" data-name="패스 963"/>
            <path id="패스_964" d="M22 5.72l-4.6-3.86-1.29 1.53 4.6 3.86zM7.88 3.39L6.6 1.86 2 5.71l1.29 1.53 4.59-3.85zM12.5 8H11v6l4.75 2.85.75-1.23-4-2.37zM12 4a9 9 0 1 0 9 9 9 9 0 0 0-9-9zm0 16a7 7 0 1 1 7-7 6.995 6.995 0 0 1-7 7z" class="cls-6" data-name="패스 964"/>
        </g>
        <g id="baseline-supervisor_account-24px" transform="translate(231 25)">
            <path id="패스_969" d="M0 0h24v24H0z" class="cls-1" data-name="패스 969"/>
            <path id="패스_970" d="M16.5 12A2.5 2.5 0 1 0 14 9.5a2.492 2.492 0 0 0 2.5 2.5zM9 11a3 3 0 1 0-3-3 2.987 2.987 0 0 0 3 3zm7.5 3c-1.83 0-5.5.92-5.5 2.75V19h11v-2.25c0-1.83-3.67-2.75-5.5-2.75zM9 13c-2.33 0-7 1.17-7 3.5V19h7v-2.25a3.941 3.941 0 0 1 2.37-3.47A12.283 12.283 0 0 0 9 13z" class="cls-7" data-name="패스 970"/>
        </g>
        <g id="baseline-home-24px" transform="translate(47 23)">
            <path id="패스_973" d="M10 20v-6h4v6h5v-8h3L12 3 2 12h3v8z" class="cls-7" data-name="패스 973"/>
            <path id="패스_974" d="M0 0h24v24H0z" class="cls-1" data-name="패스 974"/>
        </g>
        <g id="baseline-settings-20px" transform="translate(320 27)">
            <path id="패스_975" d="M0 0h20v20H0z" class="cls-1" data-name="패스 975"/>
            <path id="패스_976" d="M15.95 10.78A6.527 6.527 0 0 0 16 10a4.932 4.932 0 0 0-.06-.78l1.69-1.32a.413.413 0 0 0 .1-.51l-1.6-2.77a.407.407 0 0 0-.49-.18l-1.99.8a5.859 5.859 0 0 0-1.35-.78L12 2.34a.4.4 0 0 0-.4-.34H8.4a.389.389 0 0 0-.39.34l-.3 2.12a6.015 6.015 0 0 0-1.35.78l-1.99-.8a.4.4 0 0 0-.49.18l-1.6 2.77a.388.388 0 0 0 .1.51l1.69 1.32a4.713 4.713 0 0 0-.01 1.56L2.37 12.1a.413.413 0 0 0-.1.51l1.6 2.77a.407.407 0 0 0 .49.18l1.99-.8a5.859 5.859 0 0 0 1.35.78l.3 2.12a.407.407 0 0 0 .4.34h3.2a.382.382 0 0 0 .39-.34l.3-2.12a6.015 6.015 0 0 0 1.35-.78l1.99.8a.4.4 0 0 0 .49-.18l1.6-2.77a.388.388 0 0 0-.1-.51l-1.67-1.32zM10 13a3 3 0 1 1 3-3 3.009 3.009 0 0 1-3 3z" class="cls-7" data-name="패스 976"/>
        </g>
    </g>
</svg>
